<?xml version="1.0" encoding="iso-8859-1"?>
<!-- Generator: Adobe Illustrator 19.0.0, SVG Export Plug-In . SVG Version: 6.00 Build 0)  -->
<svg version="1.1" id="Capa_1" xmlns="http://www.w3.org/2000/svg" xmlns:xlink="http://www.w3.org/1999/xlink" x="0px" y="0px"
	 viewBox="0 0 512 512" style="enable-background:new 0 0 512 512;" xml:space="preserve">
<path style="fill:#FEDB41;" d="M481,196c0,23.399-10.499,45-29.099,59.399H60.099C41.499,241,31,219.399,31,196
	c0-36.601,26.4-67.2,61.199-73.801c5.7-30.298,29.702-54.3,60-60C158.8,27.4,189.401,0,226,0c10.499,0,20.4,2.1,30,6.599
	C265.6,2.1,275.501,0,286,0c36.599,0,67.2,27.4,73.801,62.199c30.298,5.7,54.3,29.702,60,60C454.6,128.8,481,159.399,481,196z"/>
<path style="fill:#FCBF29;" d="M481,196c0,23.399-10.499,45-29.099,59.399H256V6.599C265.6,2.1,275.501,0,286,0
	c36.599,0,67.2,27.4,73.801,62.199c30.298,5.7,54.3,29.702,60,60C454.6,128.8,481,159.399,481,196z"/>
<path style="fill:#D9D9D9;" d="M408.974,211c-19.365,0-36.621,9.653-46.729,24.946L304.4,361L301,512h75
	c6.46,0,12.188-4.131,14.224-10.254l71.968-216.903C474.342,248.48,447.288,211,408.974,211z"/>
<path style="fill:#FD3018;" d="M103.026,211c-18.252,0-34.849,8.496-45.513,23.306c-10.679,14.81-13.491,33.223-7.705,50.537
	l71.968,216.903C123.813,507.869,129.54,512,136,512h60l-2.709-195.545l-43.536-80.508C139.633,220.653,122.392,211,103.026,211z"/>
<path style="fill:#D9E3ED;" d="M362.199,235.899L301,512H196l-46.199-276.101C162.7,220,181.901,211,202.599,211
	c21.601,0,40.801,9.899,53.401,25.8c12.599-15.901,31.8-25.8,53.401-25.8C330.099,211,349.3,220,362.199,235.899z"/>
<path style="fill:#E61E14;" d="M362.199,235.899L301,512h-45V236.8c12.599-15.901,31.8-25.8,53.401-25.8
	C330.099,211,349.3,220,362.199,235.899z"/>
<path style="fill:#FEA832;" d="M226,181c-8.291,0-15-6.709-15-15c0-8.276-6.724-15-15-15s-15,6.724-15,15c0,8.291-6.709,15-15,15
	s-15-6.709-15-15c0-24.814,20.186-45,45-45s45,20.186,45,45C241,174.291,234.291,181,226,181z"/>
<path style="fill:#FE9923;" d="M346,181c-8.291,0-15-6.709-15-15c0-8.276-6.724-15-15-15s-15,6.724-15,15c0,8.291-6.709,15-15,15
	s-15-6.709-15-15c0-24.814,20.186-45,45-45s45,20.186,45,45C361,174.291,354.291,181,346,181z"/>
<path style="fill:#FEDB41;" d="M256,286c-67.2,0-120,32.999-120,75c0,41.999,52.8,75,120,75s120-33.001,120-75
	C376,318.999,323.2,286,256,286z"/>
<path style="fill:#FCBF29;" d="M376,361c0,41.999-52.8,75-120,75V286C323.2,286,376,318.999,376,361z"/>
<g>
</g>
<g>
</g>
<g>
</g>
<g>
</g>
<g>
</g>
<g>
</g>
<g>
</g>
<g>
</g>
<g>
</g>
<g>
</g>
<g>
</g>
<g>
</g>
<g>
</g>
<g>
</g>
<g>
</g>
</svg>
